<svg xmlns="http://www.w3.org/2000/svg" xmlns:xlink="http://www.w3.org/1999/xlink" viewBox="0 0 1247 966.53"><defs><style>.cls-1{isolation:isolate;}.cls-2{opacity:0.49;mix-blend-mode:overlay;fill:url(#linear-gradient);}</style><linearGradient id="linear-gradient" x1="1493.67" y1="1518.99" x2="413.19" y2="244.36" gradientUnits="userSpaceOnUse"><stop offset="0.01" stop-color="#fff"/><stop offset="0.99" stop-color="#fff" stop-opacity="0"/></linearGradient></defs><g class="cls-1"><g id="레이어_2" data-name="레이어 2"><g id="레이어_1-2" data-name="레이어 1"><path class="cls-2" d="M1227.81,17.25c-30.62-33.17-86.11-12.9-122.49,13.83-71,52.22-131,123.25-213.93,153.23-75.17,27.19-158.94,16.34-235.75-5.83s-150.4-55.23-228.41-72.73C283.27,73.45,127.86,98.82,0,172V945.08c39.76,8.84,79.64,16.8,119.5,20,139.4,11.06,282.6-40.38,383.1-137.62C571,761.27,618.74,677,679.73,604A784.23,784.23,0,0,1,919.34,411.45c99-51.44,214.6-86,280.29-176.21a249.92,249.92,0,0,0,46.53-166.37C1244.6,50.33,1240.43,30.92,1227.81,17.25Z"/></g></g></g></svg>