<svg xmlns="http://www.w3.org/2000/svg" xmlns:xlink="http://www.w3.org/1999/xlink" viewBox="0 0 340.62 280"><defs><style>.cls-1{fill:url(#linear-gradient);}</style><linearGradient id="linear-gradient" x1="57.58" y1="-124.62" x2="206.1" y2="270.14" gradientUnits="userSpaceOnUse"><stop offset="0.01" stop-color="#292ef9"/><stop offset="0.99" stop-color="#9181fa"/></linearGradient></defs><title>자산 1</title><g id="레이어_2" data-name="레이어 2"><g id="OBJECTS"><path class="cls-1" d="M340,131.86a54.7,54.7,0,0,1,0,16.26c-3.16,21.2-6.21,42.31-17.43,60.26S293,238.89,273.27,246.49s-40.89,10.6-61.92,12.74c-47,4.77-94.77,5.57-140.2,18.38l-.76.22C35.13,287.89,0,261.67,0,225V55C0,18.33,35.13-7.89,70.39,2.17l.76.21C116.58,15.19,164.38,16,211.35,20.76c21,2.14,42.2,5.15,61.92,12.74s38.1,20.19,49.31,38.11S336.85,110.67,340,131.86Z"/></g></g></svg>