<svg xmlns="http://www.w3.org/2000/svg" xmlns:xlink="http://www.w3.org/1999/xlink" viewBox="0 0 277.99 268.86"><defs><style>.cls-1,.cls-12,.cls-14,.cls-16,.cls-18,.cls-25,.cls-27,.cls-29,.cls-32{fill:none;}.cls-2{isolation:isolate;}.cls-3{fill:url(#linear-gradient);}.cls-12,.cls-14,.cls-16,.cls-18,.cls-20,.cls-21,.cls-23,.cls-25,.cls-27,.cls-29,.cls-32,.cls-4{opacity:0.3;}.cls-4{fill:url(#linear-gradient-2);}.cls-5{fill:#2e2786;}.cls-6{opacity:0.15;mix-blend-mode:multiply;fill:url(#linear-gradient-3);}.cls-7{fill:url(#linear-gradient-4);}.cls-8{fill:url(#linear-gradient-5);}.cls-9{fill:url(#linear-gradient-6);}.cls-10{fill:url(#linear-gradient-7);}.cls-11{fill:url(#linear-gradient-8);}.cls-12,.cls-14,.cls-16,.cls-18,.cls-25,.cls-27,.cls-29,.cls-32{stroke-miterlimit:10;}.cls-12,.cls-14{stroke-width:0.8px;}.cls-12{stroke:url(#linear-gradient-9);}.cls-13{fill:url(#linear-gradient-10);}.cls-14{stroke:url(#linear-gradient-11);}.cls-15{fill:url(#linear-gradient-12);}.cls-16,.cls-25{stroke-width:0.35px;}.cls-16{stroke:url(#linear-gradient-13);}.cls-17{fill:url(#linear-gradient-14);}.cls-18{stroke-width:0.12px;stroke:url(#linear-gradient-15);}.cls-19{fill:url(#linear-gradient-16);}.cls-20{fill:url(#linear-gradient-17);}.cls-21{fill:url(#linear-gradient-18);}.cls-22{fill:url(#linear-gradient-19);}.cls-23{fill:url(#linear-gradient-20);}.cls-24{fill:url(#linear-gradient-21);}.cls-25{stroke:url(#linear-gradient-22);}.cls-26{fill:url(#linear-gradient-23);}.cls-27{stroke-width:0.77px;stroke:url(#linear-gradient-24);}.cls-28{fill:url(#linear-gradient-25);}.cls-29{stroke-width:1.28px;stroke:url(#linear-gradient-26);}.cls-30{clip-path:url(#clip-path);}.cls-31{fill:url(#linear-gradient-27);}.cls-32{stroke-width:0.79px;stroke:url(#linear-gradient-28);}</style><linearGradient id="linear-gradient" x1="254.61" y1="362.38" x2="113.51" y2="94.74" gradientTransform="translate(134.43 -55.68) rotate(45)" gradientUnits="userSpaceOnUse"><stop offset="0.01" stop-color="#222afd"/><stop offset="0.99" stop-color="#9781fd"/></linearGradient><linearGradient id="linear-gradient-2" x1="53.88" y1="64.42" x2="267.07" y2="64.42" gradientUnits="userSpaceOnUse"><stop offset="0.01" stop-color="#dcdffd"/><stop offset="0.99" stop-color="#9781fd"/></linearGradient><linearGradient id="linear-gradient-3" x1="132.14" y1="28.62" x2="136.28" y2="262.06" gradientTransform="matrix(1, 0, 0, 1, 0, 0)" xlink:href="#linear-gradient"/><linearGradient id="linear-gradient-4" x1="48.29" y1="53.61" x2="71.5" y2="31.76" gradientTransform="matrix(1, 0, 0, 1, 0, 0)" xlink:href="#linear-gradient"/><linearGradient id="linear-gradient-5" x1="123.83" y1="243.58" x2="166.64" y2="203.28" gradientTransform="matrix(1, 0, 0, 1, 0, 0)" xlink:href="#linear-gradient"/><linearGradient id="linear-gradient-6" x1="153.12" y1="81.03" x2="182.92" y2="52.99" gradientTransform="matrix(1, 0, 0, 1, 0, 0)" xlink:href="#linear-gradient"/><linearGradient id="linear-gradient-7" x1="154.88" y1="317.61" x2="124.84" y2="252.07" gradientTransform="matrix(1, 0, 0, 1, 0, 0)" xlink:href="#linear-gradient"/><linearGradient id="linear-gradient-8" x1="125.58" y1="186.01" x2="71.96" y2="177.56" gradientUnits="userSpaceOnUse"><stop offset="0.01" stop-color="#222afd"/><stop offset="0.05" stop-color="#2c31fd"/><stop offset="0.25" stop-color="#524efd"/><stop offset="0.44" stop-color="#7064fd"/><stop offset="0.63" stop-color="#8674fd"/><stop offset="0.82" stop-color="#937efd"/><stop offset="0.99" stop-color="#9781fd"/></linearGradient><linearGradient id="linear-gradient-9" x1="-573.22" y1="462.28" x2="-533.59" y2="462.28" gradientTransform="translate(23.72 900.31) rotate(135)" gradientUnits="userSpaceOnUse"><stop offset="0.01" stop-color="#fff"/><stop offset="0.99" stop-color="#fff" stop-opacity="0"/></linearGradient><linearGradient id="linear-gradient-10" x1="139.65" y1="60.2" x2="86.03" y2="51.75" gradientTransform="translate(140.03 -65.45) rotate(76.72)" xlink:href="#linear-gradient-8"/><linearGradient id="linear-gradient-11" x1="-679.39" y1="534.83" x2="-638.96" y2="534.83" gradientTransform="translate(32.85 900.31) rotate(135)" xlink:href="#linear-gradient-9"/><linearGradient id="linear-gradient-12" x1="165.57" y1="123.92" x2="142.44" y2="120.27" xlink:href="#linear-gradient-8"/><linearGradient id="linear-gradient-13" x1="-644.3" y1="465.14" x2="-626.85" y2="465.14" gradientTransform="translate(32.85 900.31) rotate(135)" xlink:href="#linear-gradient-9"/><linearGradient id="linear-gradient-14" x1="187.26" y1="33.77" x2="179.08" y2="32.48" xlink:href="#linear-gradient-8"/><linearGradient id="linear-gradient-15" x1="-722.44" y1="507.09" x2="-716.27" y2="507.09" xlink:href="#linear-gradient-9"/><linearGradient id="linear-gradient-16" x1="122.86" y1="15.04" x2="128.9" y2="15.04" xlink:href="#linear-gradient-2"/><linearGradient id="linear-gradient-17" x1="131.99" y1="15.04" x2="138.03" y2="15.04" xlink:href="#linear-gradient-2"/><linearGradient id="linear-gradient-18" x1="230.85" y1="68.8" x2="223.34" y2="40.81" xlink:href="#linear-gradient-2"/><linearGradient id="linear-gradient-19" x1="140.82" y1="172.61" x2="76.64" y2="101.61" xlink:href="#linear-gradient-2"/><linearGradient id="linear-gradient-20" x1="140.82" y1="172.61" x2="76.64" y2="101.61" xlink:href="#linear-gradient-2"/><linearGradient id="linear-gradient-21" x1="72" y1="98.12" x2="48.87" y2="94.47" xlink:href="#linear-gradient-8"/><linearGradient id="linear-gradient-22" x1="-602.83" y1="543.09" x2="-585.39" y2="543.09" gradientTransform="translate(32.85 900.31) rotate(135)" xlink:href="#linear-gradient-9"/><linearGradient id="linear-gradient-23" x1="271" y1="732.88" x2="264.85" y2="686.45" gradientTransform="translate(-537.02 -21.47) rotate(-53.3)" xlink:href="#linear-gradient-8"/><linearGradient id="linear-gradient-24" x1="-325.39" y1="-39.04" x2="-286.62" y2="-39.04" gradientTransform="matrix(0.14, 0.99, -0.99, 0.14, 198.85, 496.9)" xlink:href="#linear-gradient-9"/><linearGradient id="linear-gradient-25" x1="257.7" y1="117.96" x2="172.54" y2="104.54" xlink:href="#linear-gradient-8"/><linearGradient id="linear-gradient-26" x1="-724" y1="424.55" x2="-659.79" y2="424.55" gradientTransform="translate(32.85 900.31) rotate(135)" xlink:href="#linear-gradient-9"/><clipPath id="clip-path" transform="translate(9.13)"><circle class="cls-1" cx="134.43" cy="134.43" r="134.43" transform="translate(-55.68 134.43) rotate(-45)"/></clipPath><linearGradient id="linear-gradient-27" x1="38.68" y1="158.67" x2="-14.17" y2="150.34" gradientTransform="translate(158.47 108.32) rotate(76.72)" xlink:href="#linear-gradient-8"/><linearGradient id="linear-gradient-28" x1="-538.32" y1="536.67" x2="-498.46" y2="536.67" xlink:href="#linear-gradient-9"/></defs><g class="cls-2"><g id="레이어_2" data-name="레이어 2"><g id="레이어_1-2" data-name="레이어 1"><circle class="cls-3" cx="134.43" cy="134.43" r="134.43" transform="translate(-46.55 134.43) rotate(-45)"/><path class="cls-4" d="M267.07,112.59A134.43,134.43,0,0,0,53.88,26.8c.47.08.93.14,1.4.23a114,114,0,0,1,20.16,5.69,108.77,108.77,0,0,1,18.72,9.37q2.09,1.3,4.09,2.71c33.52,23.35,54.05,64.84,92.29,79.2,22.21,8.34,48.05,5.67,68.63-6.14A69.12,69.12,0,0,0,267.07,112.59Z" transform="translate(9.13)"/><path class="cls-5" d="M84.75,17.76a8.88,8.88,0,0,0,8.88-8.88,8.51,8.51,0,0,0-.38-2.43,134.07,134.07,0,0,0-16.36,6.47A8.85,8.85,0,0,0,84.75,17.76Z" transform="translate(9.13)"/><path class="cls-6" d="M268.27,146.77c-7.11,9-14.35,17.95-22.09,26.44-19.65,21.53-43.38,40.66-71.53,48.22-29.7,8-61.69,2.27-90.08-9.57-16.48-6.87-32.37-16-44.49-29.09-17.53-19-25.87-45.15-27-71A185.47,185.47,0,0,1,16.48,69.9a134.43,134.43,0,1,0,251.79,76.87Z" transform="translate(9.13)"/><path class="cls-7" d="M58.67,38.33c-7.09,0-7.1,11,0,11S65.77,38.33,58.67,38.33Z" transform="translate(9.13)"/><path class="cls-8" d="M143,215.4c-13.07,0-13.09,20.31,0,20.31S156.07,215.4,143,215.4Z" transform="translate(9.13)"/><path class="cls-9" d="M166.45,61.42c-9.1,0-9.11,14.14,0,14.14S175.56,61.42,166.45,61.42Z" transform="translate(9.13)"/><path class="cls-10" d="M131.18,254.1c-8.73,0-12.94,7-12.65,13.79a134.67,134.67,0,0,0,15.9,1c3.15,0,6.26-.15,9.36-.36C144.38,261.54,140.18,254.1,131.18,254.1Z" transform="translate(9.13)"/><circle class="cls-11" cx="97.29" cy="181.56" r="19.81"/><path class="cls-12" d="M74.15,195.57a19.82,19.82,0,1,1,28,0A19.82,19.82,0,0,1,74.15,195.57Z" transform="translate(9.13)"/><circle class="cls-13" cx="111.36" cy="55.74" r="19.81" transform="translate(40.65 151.32) rotate(-76.72)"/><circle class="cls-14" cx="120.49" cy="55.74" r="19.81"/><circle class="cls-15" cx="153.37" cy="122" r="8.55"/><circle class="cls-16" cx="153.37" cy="122" r="8.55"/><circle class="cls-17" cx="182.94" cy="33.09" r="3.02"/><path class="cls-18" d="M171.68,35.23a3,3,0,1,1,4.27,0A3,3,0,0,1,171.68,35.23Z" transform="translate(9.13)"/><path class="cls-19" d="M128.9,15a3,3,0,1,1-3-3A3,3,0,0,1,128.9,15Z" transform="translate(9.13)"/><circle class="cls-20" cx="135.01" cy="15.04" r="3.02"/><path class="cls-21" d="M237,52.93c.13-.16.25-.34.38-.5l.46-.63c.13-.2.25-.41.37-.61s.24-.39.35-.59.21-.43.31-.64l0-.12A135.58,135.58,0,0,0,220,30.76l-.25.12-.65.31c-.2.1-.39.23-.58.34l-.63.38-.61.45c-.17.13-.35.25-.51.39a14.18,14.18,0,0,0-2,2c-.14.16-.26.34-.39.51s-.31.41-.45.61l-.38.63c-.11.19-.24.38-.34.58s-.21.43-.31.65-.21.41-.29.62-.16.43-.24.64-.17.46-.24.69-.11.43-.16.65-.13.47-.18.71-.08.51-.11.77-.07.41-.09.61a14.44,14.44,0,0,0,0,2.84c0,.2.06.41.09.61s.06.52.11.77.12.47.18.71.1.44.16.65.16.46.24.68.15.44.24.65.19.41.29.62.2.44.31.65.23.39.34.58.25.42.38.62.3.41.45.61.25.35.39.52a13.24,13.24,0,0,0,1,1,13.43,13.43,0,0,0,1,1c.16.14.34.26.51.39l.61.45.63.38.58.34.65.31.62.29c.21.09.43.16.64.23s.45.17.69.24.43.12.65.17.47.13.7.17l.78.12.61.09a13.37,13.37,0,0,0,1.42.07,13.05,13.05,0,0,0,1.41-.07c.21,0,.41-.06.62-.09s.52-.07.77-.12.47-.11.71-.17.44-.1.65-.17.46-.15.69-.24.43-.14.64-.23l.62-.29.65-.31.58-.34.62-.38c.21-.14.41-.3.62-.46a6.13,6.13,0,0,0,.51-.38c.36-.3.71-.61,1.05-1S236.67,53.29,237,52.93Z" transform="translate(9.13)"/><path class="cls-22" d="M103.78,120.4a10.15,10.15,0,1,1-10.15-10.14A10.16,10.16,0,0,1,103.78,120.4Z" transform="translate(9.13)"/><path class="cls-23" d="M86.46,127.57a10.14,10.14,0,1,1,14.34,0A10.14,10.14,0,0,1,86.46,127.57Z" transform="translate(9.13)"/><path class="cls-24" d="M68.35,96.2a8.55,8.55,0,1,1-8.55-8.55A8.54,8.54,0,0,1,68.35,96.2Z" transform="translate(9.13)"/><circle class="cls-25" cx="68.93" cy="96.2" r="8.55"/><path class="cls-26" d="M204.64,173.24a19,19,0,1,1-26.58,3.88A19,19,0,0,1,204.64,173.24Z" transform="translate(9.13)"/><path class="cls-27" d="M196,207.27a19,19,0,1,1,16.05-21.54A19,19,0,0,1,196,207.27Z" transform="translate(9.13)"/><path class="cls-28" d="M244.24,110.88a31.47,31.47,0,1,1-31.47-31.47A31.47,31.47,0,0,1,244.24,110.88Z" transform="translate(9.13)"/><circle class="cls-29" cx="221.9" cy="110.88" r="31.47"/><path class="cls-5" d="M251.45,181.56a17.28,17.28,0,0,0,4.12,11.22,133.78,133.78,0,0,0,9.88-28.3A17.43,17.43,0,0,0,251.45,181.56Z" transform="translate(9.13)"/><g class="cls-30"><circle class="cls-31" cx="10.8" cy="154.28" r="19.53" transform="translate(-132.7 129.34) rotate(-76.72)"/><path class="cls-32" d="M-3,168.09a19.53,19.53,0,1,1,27.62,0A19.52,19.52,0,0,1-3,168.09Z" transform="translate(9.13)"/></g></g></g></g></svg>