<svg xmlns="http://www.w3.org/2000/svg" viewBox="0 0 213.04 2099.11"><defs><style>.cls-1,.cls-2,.cls-4{fill:#fff;}.cls-2{fill-opacity:0.8;}.cls-3{fill:#ca45f5;}.cls-4{fill-opacity:0.7;}</style></defs><title>자산 1</title><g id="레이어_2" data-name="레이어 2"><g id="레이어_1-2" data-name="레이어 1"><path class="cls-1" d="M160.39,29.57a3,3,0,0,1,.52,0,.3.3,0,0,0,.32-.26c1.45-7.45,5.79-12.22,12.41-13.57a.34.34,0,0,0,.23-.38.59.59,0,0,1,0-.14.32.32,0,0,0-.24-.28c-7-1.44-11.46-6.73-12.62-15l-.23,0h-.15a.29.29,0,0,0-.28.27c-1.25,8.24-5.83,13.45-13,14.76a.29.29,0,0,0-.24.28h0a.32.32,0,0,0,.24.37c6.89,1.26,11.4,6.16,12.83,13.89Z"/><path class="cls-1" d="M13.7,333.13a4.9,4.9,0,0,1,.54,0,.29.29,0,0,0,.32-.26c1.5-7.68,6-12.6,12.8-14a.33.33,0,0,0,.24-.39s0-.1,0-.15a.31.31,0,0,0-.24-.28c-7.23-1.49-11.83-6.94-13-15.45l-.24,0h-.16a.29.29,0,0,0-.28.28c-1.29,8.49-6,13.87-13.39,15.21a.33.33,0,0,0-.25.29H0a.34.34,0,0,0,.25.38c7.11,1.3,11.76,6.35,13.24,14.32Z"/><path class="cls-2" d="M138.13,925.2a3.31,3.31,0,0,1,.55,0A.3.3,0,0,0,139,925c1.5-7.68,6-12.6,12.8-14a.33.33,0,0,0,.23-.39c0-.05,0-.1,0-.15a.32.32,0,0,0-.25-.28c-7.22-1.49-11.82-6.94-13-15.45l-.23,0h-.16a.32.32,0,0,0-.29.28c-1.29,8.49-6,13.87-13.39,15.21a.34.34,0,0,0-.24.29h0a.33.33,0,0,0,.24.38c7.12,1.3,11.76,6.35,13.24,14.32Z"/><path class="cls-3" d="M29.44,711.08a2.77,2.77,0,0,1,.42,0,.23.23,0,0,0,.25-.2c1.16-5.92,4.61-9.72,9.86-10.79a.27.27,0,0,0,.19-.3s0-.08,0-.12a.25.25,0,0,0-.18-.22c-5.57-1.14-9.12-5.34-10-11.9l-.18,0h-.12a.24.24,0,0,0-.22.22c-1,6.54-4.64,10.68-10.32,11.72a.25.25,0,0,0-.19.23h0a.27.27,0,0,0,.19.3c5.48,1,9.06,4.89,10.2,11Z"/><path class="cls-3" d="M160.26,223.08a1.43,1.43,0,0,1,.29,0,.16.16,0,0,0,.17-.14c.78-4,3.13-6.6,6.7-7.33a.19.19,0,0,0,.13-.21.19.19,0,0,1,0-.08.2.2,0,0,0-.13-.15c-3.79-.78-6.2-3.63-6.82-8.09h-.21a.17.17,0,0,0-.15.15c-.67,4.45-3.15,7.27-7,8a.18.18,0,0,0-.13.15h0a.17.17,0,0,0,.13.2c3.72.68,6.16,3.32,6.93,7.5Z"/><path class="cls-3" d="M36.22,373.13a1.33,1.33,0,0,1,.28,0,.16.16,0,0,0,.17-.14c.78-4,3.13-6.61,6.7-7.34a.17.17,0,0,0,.13-.2.22.22,0,0,1,0-.08.18.18,0,0,0-.13-.15c-3.79-.78-6.19-3.63-6.82-8.09h-.21c-.07,0-.13.07-.15.15-.67,4.45-3.15,7.27-7,8a.17.17,0,0,0-.13.15h0a.19.19,0,0,0,.13.2c3.73.68,6.16,3.32,6.93,7.5Z"/><path class="cls-4" d="M83,668.12a3.11,3.11,0,0,1,.43,0,.24.24,0,0,0,.26-.21c1.2-6.16,4.8-10.11,10.27-11.23a.28.28,0,0,0,.19-.32s0-.07,0-.11a.28.28,0,0,0-.2-.24c-5.8-1.19-9.49-5.56-10.45-12.4l-.19,0h-.12a.24.24,0,0,0-.23.22c-1,6.82-4.83,11.13-10.75,12.22a.26.26,0,0,0-.2.23h0a.28.28,0,0,0,.2.31c5.71,1,9.44,5.1,10.63,11.5Z"/><path class="cls-1" d="M60.65,1417.57a3.15,3.15,0,0,0-.53,0,.29.29,0,0,1-.31-.26c-1.45-7.45-5.79-12.22-12.41-13.57a.34.34,0,0,1-.23-.38s0-.09,0-.14a.31.31,0,0,1,.23-.28c7-1.44,11.47-6.73,12.63-15l.23,0h.15a.3.3,0,0,1,.28.27c1.25,8.24,5.83,13.45,13,14.76a.3.3,0,0,1,.24.28h0a.32.32,0,0,1-.24.37c-6.89,1.26-11.4,6.16-12.83,13.89Z"/><path class="cls-1" d="M199.34,1029.13a4.73,4.73,0,0,0-.54,0,.29.29,0,0,1-.32-.26c-1.5-7.68-6-12.6-12.8-14a.33.33,0,0,1-.24-.39s0-.1,0-.15a.31.31,0,0,1,.24-.28c7.23-1.49,11.83-6.94,13-15.45l.24,0h.16a.29.29,0,0,1,.28.28c1.29,8.49,6,13.87,13.39,15.21a.33.33,0,0,1,.25.29h0a.34.34,0,0,1-.25.38c-7.11,1.3-11.76,6.35-13.24,14.32Z"/><path class="cls-2" d="M13.9,2001.2a3.29,3.29,0,0,0-.54,0A.3.3,0,0,1,13,2001c-1.5-7.68-6-12.6-12.8-14a.35.35,0,0,1-.24-.39.77.77,0,0,0,0-.15.32.32,0,0,1,.25-.28c7.22-1.49,11.82-6.94,13-15.45l.23,0h.16a.3.3,0,0,1,.28.28c1.29,8.49,6,13.87,13.39,15.21a.33.33,0,0,1,.25.29h0a.33.33,0,0,1-.25.38c-7.11,1.3-11.75,6.35-13.23,14.32Z"/><path class="cls-3" d="M191.59,2099.08a2.73,2.73,0,0,0-.41,0,.22.22,0,0,1-.25-.2c-1.16-5.92-4.61-9.72-9.86-10.79a.26.26,0,0,1-.19-.3s0-.08,0-.12a.25.25,0,0,1,.18-.22c5.57-1.14,9.12-5.34,10-11.9l.18,0h.12a.24.24,0,0,1,.22.22c1,6.54,4.64,10.68,10.32,11.72a.25.25,0,0,1,.19.23h0a.27.27,0,0,1-.19.3c-5.48,1-9.06,4.89-10.2,11Z"/><path class="cls-3" d="M60.78,1611.08a1.36,1.36,0,0,0-.29,0,.16.16,0,0,1-.17-.14c-.78-4-3.13-6.6-6.7-7.33a.19.19,0,0,1-.13-.21.19.19,0,0,0,0-.08.18.18,0,0,1,.13-.15c3.79-.78,6.2-3.63,6.82-8.09h.21c.07,0,.13.07.15.15.67,4.45,3.15,7.27,7,8a.18.18,0,0,1,.13.15h0a.17.17,0,0,1-.13.2c-3.72.68-6.16,3.32-6.93,7.5Z"/><path class="cls-3" d="M176.82,1069.13a1.33,1.33,0,0,0-.28,0,.16.16,0,0,1-.17-.14c-.79-4-3.13-6.61-6.7-7.34a.17.17,0,0,1-.13-.2s0,0,0-.08a.18.18,0,0,1,.13-.15c3.78-.78,6.19-3.63,6.82-8.09h.21a.16.16,0,0,1,.14.15c.68,4.45,3.16,7.27,7,8a.17.17,0,0,1,.13.15h0a.19.19,0,0,1-.13.2c-3.73.68-6.16,3.32-6.94,7.5Z"/><path class="cls-4" d="M138,2056.12a3,3,0,0,0-.43,0,.24.24,0,0,1-.26-.21c-1.21-6.16-4.8-10.11-10.27-11.23a.27.27,0,0,1-.19-.32s0-.07,0-.11a.27.27,0,0,1,.19-.24c5.81-1.19,9.5-5.56,10.46-12.4l.19,0h.12a.24.24,0,0,1,.23.22c1,6.82,4.83,11.13,10.75,12.22a.26.26,0,0,1,.2.23h0a.28.28,0,0,1-.2.31c-5.71,1-9.44,5.1-10.63,11.5Z"/></g></g></svg>