<svg xmlns="http://www.w3.org/2000/svg" xmlns:xlink="http://www.w3.org/1999/xlink" viewBox="0 0 86.09 37.62"><defs><style>.cls-1{fill:#b4aeeb;}.cls-2{fill:url(#linear-gradient);}.cls-3{fill:url(#linear-gradient-2);}.cls-4{fill:url(#linear-gradient-3);}.cls-5{fill:url(#linear-gradient-4);}.cls-6{fill:url(#linear-gradient-5);}.cls-7{fill:url(#linear-gradient-6);}.cls-8{fill:url(#linear-gradient-7);}.cls-9{fill:url(#linear-gradient-8);}.cls-10{fill:url(#linear-gradient-9);}.cls-11{fill:url(#linear-gradient-10);}.cls-12{fill:url(#linear-gradient-11);}</style><linearGradient id="linear-gradient" x1="-518.01" y1="46.38" x2="-518.49" y2="60.52" gradientTransform="translate(562.82 -20.37) rotate(1.56)" gradientUnits="userSpaceOnUse"><stop offset="0.01" stop-color="#292ef9"/><stop offset="0.99" stop-color="#9181fa"/></linearGradient><linearGradient id="linear-gradient-2" x1="-506.56" y1="77.99" x2="-530.23" y2="37.62" xlink:href="#linear-gradient"/><linearGradient id="linear-gradient-3" x1="-536.96" y1="40.23" x2="-499.92" y2="40.23" gradientTransform="translate(562.82 -20.37) rotate(1.56)" gradientUnits="userSpaceOnUse"><stop offset="0.01" stop-color="#dddffd"/><stop offset="0.99" stop-color="#9181fa"/></linearGradient><linearGradient id="linear-gradient-4" x1="-518.16" y1="57.37" x2="-518.83" y2="39.39" xlink:href="#linear-gradient"/><linearGradient id="linear-gradient-5" x1="-539.76" y1="55.7" x2="-541.22" y2="48.55" gradientTransform="translate(562.82 -20.37) rotate(1.56)" gradientUnits="userSpaceOnUse"><stop offset="0.01" stop-color="#fff"/><stop offset="0.99" stop-color="#fff" stop-opacity="0"/></linearGradient><linearGradient id="linear-gradient-6" x1="-533.57" y1="54.55" x2="-533.57" y2="49.22" xlink:href="#linear-gradient-5"/><linearGradient id="linear-gradient-7" x1="-527.21" y1="55.17" x2="-525.88" y2="49.72" xlink:href="#linear-gradient-5"/><linearGradient id="linear-gradient-8" x1="-518.62" y1="54.97" x2="-519.1" y2="49.88" xlink:href="#linear-gradient-5"/><linearGradient id="linear-gradient-9" x1="-511.44" y1="54.28" x2="-511.69" y2="50.64" xlink:href="#linear-gradient-5"/><linearGradient id="linear-gradient-10" x1="-504.32" y1="54.79" x2="-504.32" y2="50.31" xlink:href="#linear-gradient-5"/><linearGradient id="linear-gradient-11" x1="-495.96" y1="57.21" x2="-497.29" y2="48.97" xlink:href="#linear-gradient-5"/></defs><title>자산 4</title><g id="레이어_2" data-name="레이어 2"><g id="OBJECTS"><path class="cls-1" d="M59.84,33c-.08,2.81-7.71,4.88-17,4.62S26,34.87,26,32.06c0-.88.78-1.69,2.11-2.37,2.91-1.51,8.51-2.43,14.93-2.25s12,1.4,14.79,3.07C59.15,31.26,59.86,32.11,59.84,33Z"/><path class="cls-2" d="M86.09,24.43c-.15,5.46-19.54,9.37-43.31,8.72S-.15,27.54,0,22.08c0-1.25,1.07-2.42,2.94-3.47,6.3-3.54,22-5.75,40.38-5.25,19.84.54,36.46,4.09,41.33,8.42A3.53,3.53,0,0,1,86.09,24.43Z"/><path class="cls-3" d="M86.09,24.43c-.15,5.46-19.54,9.37-43.31,8.72S-.15,27.54,0,22.08c0-1.25,1.07-2.42,2.94-3.47a3.26,3.26,0,0,0,.75,2c.29.67,3.06,2.91,11.68,5A144.49,144.49,0,0,0,43.91,29a144.39,144.39,0,0,0,28.68-1.78c5.61-1,8.75-2.26,10.36-3.18a3.67,3.67,0,0,0,1.59-2c0-.09.07-.17.11-.25A3.53,3.53,0,0,1,86.09,24.43Z"/><path class="cls-4" d="M61.86,11.38l-37-.51C25,9.19,26,8.41,27,7c3-4.3,9.59-7.18,17.11-7S58,3.44,60.83,7.91A6.13,6.13,0,0,1,61.86,11.38Z"/><path class="cls-5" d="M71.53,21.1h0a1.47,1.47,0,0,1-1.3,1.48l-7.45-.21-39.86-1.1-6.82-.19c-.74,0-1.24-.9-1.05-1.84l.29-1.48a1.76,1.76,0,0,1,.54-1l7.63-6.69A4.19,4.19,0,0,1,26.46,9l34.88,1c1,.05,1.87,1.41,2.59,2.19l7.21,7.69A1.7,1.7,0,0,1,71.53,21.1Z"/><path class="cls-6" d="M22,15.28A1.22,1.22,0,1,1,21,13.88,1.23,1.23,0,0,1,22,15.28Z"/><path class="cls-7" d="M29.29,16a1.22,1.22,0,1,1-2.43-.23,1.22,1.22,0,1,1,2.43.23Z"/><path class="cls-8" d="M36.58,16.6a1.22,1.22,0,1,1-1.13-1.35A1.25,1.25,0,0,1,36.58,16.6Z"/><path class="cls-9" d="M43.89,17a1.22,1.22,0,1,1-2.44-.1,1.22,1.22,0,1,1,2.44.1Z"/><path class="cls-10" d="M51.2,17.12A1.22,1.22,0,1,1,50,15.84,1.24,1.24,0,0,1,51.2,17.12Z"/><path class="cls-11" d="M58.52,17a1.26,1.26,0,0,1-1.18,1.33A1.28,1.28,0,1,1,58.52,17Z"/><path class="cls-12" d="M65.81,16.47a1.22,1.22,0,0,1-1.09,1.38,1.27,1.27,0,0,1-1.34-1.17,1.22,1.22,0,1,1,2.43-.21Z"/></g></g></svg>