<svg xmlns="http://www.w3.org/2000/svg" xmlns:xlink="http://www.w3.org/1999/xlink" viewBox="0 0 1945.09 5846.3"><defs><style>.cls-1{fill:none;}.cls-2{fill:url(#무제_그라디언트_4);}.cls-3{fill:url(#무제_그라디언트_6);}.cls-4{fill:url(#무제_그라디언트_15);}.cls-5{clip-path:url(#clip-path);}.cls-6{clip-path:url(#clip-path-2);}.cls-7{fill:url(#무제_그라디언트_2);}.cls-8{clip-path:url(#clip-path-3);}.cls-9{fill:url(#무제_그라디언트_2-2);}.cls-10{opacity:0.53;}.cls-11{clip-path:url(#clip-path-5);}.cls-12{fill:#fff;}</style><linearGradient id="무제_그라디언트_4" x1="-2990.17" y1="1351.36" x2="-2724.01" y2="1351.36" gradientTransform="matrix(-0.84, 0.54, 0.54, 0.84, -3000.82, 542.65)" gradientUnits="userSpaceOnUse"><stop offset="0" stop-color="#5865b9"/><stop offset="1" stop-color="#22dcfd"/></linearGradient><linearGradient id="무제_그라디언트_6" x1="150.2" y1="-2826.48" x2="297.51" y2="-2826.48" gradientTransform="translate(-1873.34 2954.68) rotate(131.45)" gradientUnits="userSpaceOnUse"><stop offset="0" stop-color="#2727d5"/><stop offset="1" stop-color="#88d0cf"/></linearGradient><linearGradient id="무제_그라디언트_15" x1="546.48" y1="5898.76" x2="812.65" y2="5898.76" gradientTransform="translate(-439.88 168.39) rotate(-14.39)" gradientUnits="userSpaceOnUse"><stop offset="0" stop-color="#84bcd2"/><stop offset="1" stop-color="#725ce0"/></linearGradient><clipPath id="clip-path"><rect class="cls-1" x="1476.79" y="1654.3" width="372.28" height="614.18" transform="translate(-806.55 2678.35) rotate(-65.9)"/></clipPath><clipPath id="clip-path-2"><path class="cls-1" d="M1739,1791.48a186.19,186.19,0,0,0-220.87,53c-3.46,4.28-6.76,8.76-9.85,13.4a187.7,187.7,0,0,0-25.19,55.65c44.87,27.41,101.88,56.89,163.53,84.47s121.63,50.44,172,65.63a187.88,187.88,0,0,0,24.71-55.87c1.39-5.4,2.54-10.84,3.42-16.28A186.17,186.17,0,0,0,1739,1791.48Z"/></clipPath><linearGradient id="무제_그라디언트_2" x1="-1641.2" y1="1018.05" x2="-1639.63" y2="1018.05" gradientTransform="matrix(0, 237, 237, 0, -239585.32, 390673.37)" gradientUnits="userSpaceOnUse"><stop offset="0" stop-color="#972ae6"/><stop offset="1" stop-color="#7281de"/></linearGradient><clipPath id="clip-path-3"><path class="cls-1" d="M1646.57,1998c-61.65-27.58-118.66-57.06-163.53-84.47q-2.16,8.07-3.56,16.2A186.18,186.18,0,0,0,1808.83,2077q5.13-6.45,9.7-13.45c-50.33-15.19-110.3-38-172-65.63"/></clipPath><linearGradient id="무제_그라디언트_2-2" x1="-1641.06" y1="1017.76" x2="-1639.49" y2="1017.76" gradientTransform="matrix(0, 233.98, 233.98, 0, -236517.5, 385851.21)" xlink:href="#무제_그라디언트_2"/><clipPath id="clip-path-5"><rect class="cls-1" x="1609.58" y="1658.02" width="103.37" height="614.18" transform="translate(-810.94 2679.03) rotate(-65.9)"/></clipPath></defs><title>자산 7</title><g id="레이어_2" data-name="레이어 2"><g id="레이어_1-2" data-name="레이어 1"><circle class="cls-2" cx="133.1" cy="133.1" r="133.08"/><circle class="cls-3" cx="96.95" cy="4993.56" r="73.65"/><circle class="cls-4" cx="1684.37" cy="5713.19" r="133.08"/><g class="cls-5"><g class="cls-6"><rect class="cls-7" x="1579.66" y="1708.58" width="226.19" height="372.28" transform="translate(-728.05 2666.13) rotate(-65.9)"/></g><g class="cls-8"><rect class="cls-9" x="1540.65" y="1876.15" width="156.41" height="367.53" transform="translate(-922.57 2696.4) rotate(-65.9)"/></g><g class="cls-5"><g class="cls-10"><g class="cls-11"><path class="cls-12" d="M1874.78,2009.08c-8.78-5.76-18.16-11.67-28.12-17.65-.88,5.44-2,10.88-3.42,16.28q12.06,7.35,22.9,14.49c56.95,37.49,64.25,54.87,63.09,57.47s-19,8.73-84.89-8.74q-12.4-3.29-25.81-7.35c-50.33-15.19-110.3-38-172-65.63s-118.66-57.06-163.53-84.47q-11.94-7.27-22.68-14.34c-56.95-37.49-64.25-54.87-63.09-57.46s19-8.73,84.89,8.74q12.52,3.33,26.07,7.41c3.09-4.64,6.39-9.12,9.85-13.4-11.09-3.43-21.75-6.5-31.9-9.2-82.72-21.93-98.54-10.49-103.24,0s-2.7,29.94,68.78,77q13,8.55,27.76,17.42c44.71,27,100.53,55.7,160.68,82.61s118.78,49.37,168.67,64.74q16.43,5.07,31.49,9.08c82.72,21.93,98.54,10.49,103.25,0s2.69-29.94-68.79-77"/></g></g></g></g></g></g></svg>